<?xml version="1.0" encoding="utf-8"?>
<!-- (c) ammap.com | SVG map of Indonesia - High -->
<svg xmlns="http://www.w3.org/2000/svg" xmlns:amcharts="http://amcharts.com/ammap" xmlns:xlink="http://www.w3.org/1999/xlink" version="1.1">
	<defs>
		<style type="text/css">
			.land
			{
				fill: #CCCCCC;
				fill-opacity: 1;
				stroke:white;
				stroke-opacity: 1;
				stroke-width:0.5;
			}
		</style>

		<amcharts:ammap projection="mercator" leftLongitude="95.220250" topLatitude="7.356505" rightLongitude="141.009728" bottomLatitude="-10.946766"></amcharts:ammap>

		<!-- All areas are listed in the line below. You can use this list in your script. -->
		<!--{id:"ID-AC"},{id:"ID-BA"},{id:"ID-BB"},{id:"ID-BE"},{id:"ID-BT"},{id:"ID-GO"},{id:"ID-JA"},{id:"ID-JB"},{id:"ID-JI"},{id:"ID-JK"},{id:"ID-JT"},{id:"ID-KB"},{id:"ID-KI"},{id:"ID-KR"},{id:"ID-KS"},{id:"ID-KT"},{id:"ID-KU"},{id:"ID-LA"},{id:"ID-MA"},{id:"ID-MU"},{id:"ID-NB"},{id:"ID-NT"},{id:"ID-PA"},{id:"ID-PB"},{id:"ID-RI"},{id:"ID-SA"},{id:"ID-SB"},{id:"ID-SG"},{id:"ID-SN"},{id:"ID-SR"},{id:"ID-SS"},{id:"ID-ST"},{id:"ID-SU"},{id:"ID-YO"},{id:"TL"},{id:"MY-12"},{id:"MY-13"},{id:"BN"}-->

	</defs>
	<g>
		<path id="ID-JB" title="Jawa Barat" class="land" d="M205.41,228.89L206.18,229.69L206.6,229.77L208.8,229.27L209.71,229.53L210.59,230.47L211.81,232.53L213.42,233.15L214.48,233.28L215.34,234.22L215.76,233.88L215.98,234.02L216.47,233.99L217.78,233.2L218.4,233.22L218.52,233.64L219.13,233.31L219.28,233.58L219,233.57L219.08,234.07L220.16,234.45L221.58,235.26L223.19,235.75L224.19,235.13L224.61,234.66L224.54,234.28L224.19,233.94L224.56,234L224.83,234.28L226.17,234.25L226.8,234.7L226.88,234.21L227.02,234.14L227.31,234.54L227.47,235.08L227.35,235.25L227.63,236.08L228.97,237.58L230.33,238.39L230.48,239.59L230.39,240.16L230.76,242.01L231.41,243.16L232,243.31L232.28,242.97L232.76,243.23L232.84,243.8L234.01,244.08L234.94,243.62L234.99,243.25L234.68,243.14L234.91,242.87L235.38,242.84L235.38,242.84L235.31,244.31L234.75,245.16L234.5,245.27L234.07,245.85L234.23,246.35L234.18,247L234.83,247.37L234.79,247.73L234.52,247.96L234.62,248.27L234.45,248.64L234.5,249.01L234.22,249.27L233.56,249.32L233.08,249.9L232.5,249.96L232.16,249.65L231.82,249.66L230.84,250.14L230.82,250.71L231.1,250.98L231.1,251.49L230.63,252.3L230.72,253.12L230.9,253.1L231.11,253.34L232.28,253.25L232.79,253.73L232.9,254.21L233.45,254.8L233.32,255.26L233.42,255.7L233.72,256.07L234.06,257.01L233.98,257.53L233.69,257.97L234.38,258.7L234.87,258.95L234.87,258.95L234.19,259.38L233.67,259.08L232.93,259.02L232.46,259.33L232.42,259.47L232.75,259.82L232.61,259.95L232.25,259.73L232.12,259.22L231.07,259.18L230.15,259.39L229.75,259.78L229.67,260.9L229.22,261.22L228.6,261.46L226.91,261.46L222.44,260.69L220.9,260.17L219.44,259.99L218.4,260.06L218.22,259.96L218.12,259.49L217.67,259.21L217.18,259L215.68,258.84L215.35,258.11L214.13,257.24L211.95,256.45L211.59,256.14L210.28,255.89L207.71,255.7L205.7,255.17L196.23,254.51L195.36,254.26L194.87,253.79L194.01,253.51L193.46,253.7L193.44,253.35L192.97,252.29L192.98,251.49L193.55,250.58L194.43,250.39L194.19,249.87L194.29,249.5L194.78,249.08L195.23,248.91L195.86,248.06L195.79,247.15L195.28,246.64L194.05,246.49L193.58,246.66L193.27,246.98L193.27,246.98L193.11,246.22L193.29,246.04L193.19,245.6L193.84,244.91L193.92,244.2L194.86,243.76L194.89,243.49L195.26,243.24L194.71,242.58L194.5,242.61L194.06,242.13L193.9,242.13L193.79,241.79L193.88,240.06L193.32,238.82L193.43,237.86L194.05,237.77L194.3,237.44L193.86,236.04L194.53,235.4L194.86,235.5L195.07,236.15L195.61,236.11L195.6,235.86L195.3,235.7L195.4,235.64L196.42,235.91L196.72,236.27L199.63,236.25L199.81,235.64L199.81,235.64L199.85,235.49L199.85,235.49L200.37,235.44L200.13,236.12L200.25,236.27L201.15,236.02L202,236.51L202.18,236.46L202.39,235.51L202.18,235.14L202.13,234.58L202.76,234.41L203.17,233.55L203.23,231.56L203.23,231.56L203.6,231.5L203.78,231.25L203.53,230.84L203.95,230.56L203.79,230.34L203.62,230.43L203.57,230.09L203.88,229.83L203.99,229.17L203.82,228.94L203.53,229.01L203.53,228.92L204.13,228.51z"/>
		<path id="ID-JI" title="Jawa Timur" class="land" d="M312.78,272.41l0.65,0.13l0.86,-0.05l0.48,0.3l-0.17,0.37l-1.01,0.24l-0.98,0.05l-0.45,-0.19l0.03,-0.52l0.35,-0.14l0.08,-0.27L312.78,272.41zM355.4,249.19l0.54,0.18l-0.07,0.26l0.23,0.2l0.52,0.06l0.1,0.21h0.26l0.17,-0.14v-0.37l0.41,-0.18l-0.01,-0.23l0.27,-0.13l-0.27,1.55l-0.3,0.23l-0.79,0.06l-1.3,-0.64l-0.17,-0.33l0.28,-0.44l-0.16,-0.45l0.14,-0.24L355.4,249.19zM331.6,250.38l-0.28,0.06l-0.7,-0.19l-0.79,-0.55l-0.32,-0.62l0.23,-0.57l0.85,-0.26l0.49,0.34l0.74,1.51L331.6,250.38zM353.29,246.76l0.57,0.33l0.16,0.37l-0.55,-0.2l-0.58,0.14l-0.48,-0.18l-0.06,-0.34l-0.28,-0.03l-0.11,-0.27l0.26,-0.33L353.29,246.76zM324.86,245.28l1.76,0.91l0.32,0.77l-0.57,-0.02l-0.36,0.32l-0.53,0.19l-1.23,0.08l-0.34,0.28l-0.45,-0.21l-0.21,0.13l0.6,0.28l0.42,0.47l1.44,0.08l0.23,0.66l-1.6,-0.19l-0.64,-0.47l0.09,-0.32l-0.43,-0.19l-0.57,0.45l-0.13,0.28l-0.04,0.17l0.25,0.11l0.11,0.32l-0.11,0.23l-3.59,-0.43l-0.6,0.38l-0.21,-0.09l-0.58,0.11l-0.42,0.47l-0.42,1.21l-0.68,0.45l-0.21,-0.17l0.13,-0.09l-0.08,-0.17l-0.76,-0.15l-3.13,-0.11l-0.3,0.17l-1.27,0.04l-0.3,-0.49l-0.34,0.06l-0.02,-0.23l0.21,-0.26l-0.34,-0.3l-0.38,0.45l0.17,0.38l0.38,0.34l-0.93,0.09l-3.55,-0.87l-0.49,-0.28l-1.49,-0.09l-0.4,0.25l-0.66,0.02l-0.45,-0.36l0.23,-0.94h-0.28l-0.26,-0.68l0.21,-0.47l0.6,0.15l1.23,-1.02l0.6,-0.89l-0.04,-0.34l1.06,-0.38l1.59,-0.02l0.68,-0.15l1.64,0.21l5.59,-0.06l1.19,0.17l3.46,-0.25l1.15,0.06l2.57,-0.38L324.86,245.28zM347.12,244.35l2.21,0.16l0.96,0.33l1.49,0.84l0.24,0.44l-0.44,0.6l-0.43,-0.26l-0.45,0.03l-0.43,-0.43l-1.02,0.16l-0.33,-0.38l-0.41,0.06l-0.1,0.14l-0.5,-0.06l0.07,0.23l0.71,0.33l0.38,0.55l-1.16,0.13l-0.27,-0.38l-0.18,0.01l-0.23,0.13l0.03,0.38l-0.26,0.08l-0.67,-0.64l0.47,-0.54l-0.31,0.1l-0.84,-0.08l-0.14,-0.31l0.18,-0.62l0.5,-0.09l0.24,-0.33l0.01,-0.18l-0.43,-0.23l0.09,-0.1l0.33,-0.16L347.12,244.35zM285.73,243.34l0.5,0.05l0.83,0.41l0.63,0.02l0.93,-0.23l0.7,-0.4l0.44,0.05l1.15,1.9l0.39,0.29l0.91,0.12l0.89,-0.05l1.03,-0.43l0.47,0.12l1.3,-0.25l1.25,0.17l0.25,-0.14l0.53,0.15l0.59,0.45l0.66,0.13l0.37,-0.46l-0.23,-0.29l0.28,-0.18l-0.05,-0.34l0.4,0.34l0.12,-0.07l0.02,0.31l0.28,0.39l0.29,-0.01l0.21,0.28l-0.13,0.27l-0.22,-0.09l-0.02,0.27l0.32,1.01l0.61,0.45l0.09,0.55l-0.38,0.44l-0.15,0.79l0.78,0.71l0.04,0.38l-0.29,0.18v0.29l0.27,0.18l0.63,0.04l0.17,-0.39l0.81,-0.09l0.36,0.27l0.39,0.71l0.7,0.56l-0.02,0.5l-0.22,0.26l0.2,0.1l-0.16,1.17l0.06,1.27l-0.37,0.06l0.34,0.6l0.47,0.15l0.14,0.22l-0.14,0.86l0.2,0.05l0.25,0.49l0.79,0.28l0.24,-0.18l0.37,0.41l0.48,0.23l0.4,-0.17l0.45,0.11l0.74,0.84l1.43,0.73l0.71,-0.14l0.67,0.11l0.59,0.7l0.39,-0.22l0.26,0.07l0.51,-0.2l0.38,-0.39l0.59,-0.06l1.65,-0.66l0.83,0.23l0.5,-0.06l1.55,0.44l0.75,-0.42l0.66,0.47l0.23,-0.02l0.5,-0.15l0.43,-0.52l0.58,-0.27l1.26,0.31l1.07,-1.09l0.86,-0.43l0.56,0.39l0.59,1.23l0.16,0.07l1.6,0.12l0.65,-0.31l0.85,0.8l1.55,0.26l0.99,0.6l0.45,0.63l0,0.92l-0.78,0.69l0.2,1.3l-0.01,1.12l-0.42,0.79l-0.09,0.77l-0.31,0.66l0.1,0.74l-0.37,0.79l-0.42,2.22l-0.05,0.58l0.42,0.84l-0.22,0.66l0.23,0.21l0.17,-0.09l0.18,-0.86l-0.09,-0.55l0.12,-0.07l0.2,0.22l-0.02,0.5l0.2,0.52l-0.12,0.57l0.37,0.95l0.48,0.58l0.48,-0.38l0.62,0.6l0.98,0.16l0.59,0.9l-0.25,0.78l-0.34,0.27l-0.7,0.16l-1.63,-0.55l-1.07,0.03l-0.48,-0.12l-0.06,-0.23l0.45,-0.22l0.12,-0.33l-0.16,-0.57l-0.61,-0.62l-1.22,-0.55l-0.54,0.05l-0.15,0.18l0.04,0.47l-0.16,0.1l-1.94,-0.51l-1.06,0.3l-0.26,-0.18v-0.46l-0.29,-0.12l-0.27,0.16l-0.03,0.21l-0.61,0.05l-0.23,-0.25l0.37,-0.1l0.02,-0.26l-0.28,-0.33h-0.29l-0.32,0.34l-0.58,-0.33l-0.84,-0.14l0.02,-0.41l-0.3,0.34l-0.16,-0.03l0.02,-0.85l-0.2,-0.11l-0.66,0.23l-0.16,0.27l-0.23,0.09l-0.22,-0.11l-0.14,0.13l-0.09,-0.06l0.17,-0.43l-0.13,-0.25l-0.37,0.28l-0.2,-0.17l-0.17,0.12l-0.79,-0.92l-0.43,-0.16l-0.4,0.06l0.06,-0.12l-0.17,-0.12l-0.27,0.15l-0.52,-0.07l-0.78,-0.37l-0.02,-0.41l-0.37,-0.16l-0.6,0.06l-0.6,0.36l-0.65,-1.07l-0.29,-0.25l-0.8,-0.53l-0.93,-0.23l-0.87,-0.06l-2.68,0.45l-1.02,0.6l-0.34,0.61l-0.52,0.42l-3.65,0.5l0.08,0.5l-0.39,0.13l-1.21,-0.63l-1.07,-0.33l-2.01,-0.17l-0.46,-0.28h-0.46l-0.83,-0.61l-0.76,-0.22l-0.59,0.31l-0.61,-0.09l-0.57,-0.31l-2.53,-0.09l-0.46,-0.09l-0.28,-0.31l-0.47,-0.2l-0.63,-0.1l-0.1,0.12l0.11,0.22h-0.78l-0.71,-0.59l-0.22,-0.02l-0.12,0.25l-0.65,-0.17l-0.05,-0.16l-0.41,0.1l0.09,1.06l-0.31,0.18l-0.33,-0.04l0.11,-0.33l-0.22,-0.39l-0.34,0.01l-0.08,0.16l0.2,0.35l-0.38,0.01l-0.1,0.21l0.39,0.33l0.07,0.24l-0.5,0.13l-0.31,-0.02l-0.16,-0.28l-0.75,-0.08l0.14,-0.2l-0.07,-0.33h-0.22l-0.04,0.13l-0.33,-0.09l-0.15,0.18l-0.28,-0.07l-0.02,-0.37l-0.31,-0.07l-0.24,0.46l-1.29,-0.31l-0.17,-0.78l-0.33,-0.2l-0.66,0.37l-2.5,-0.53l-0.52,0.35l-1.24,0.11l-0.83,-0.58l-0.04,-0.34l-0.28,-0.02l-0.08,0.45l-1,0.11l-1.96,-0.65l0,0l-0.12,-0.82l0.25,-0.91l0.7,-0.92l1.26,0.33l0.84,-0.61l0.55,0.31l0.44,-0.7l-0.07,-1.06l0.28,-0.19l-0.04,-0.3l0.18,-0.18l0.64,-0.16l0.07,0.28l0.42,-0.06l0.27,0.33l0.3,-0.09l0.62,-0.68l0.18,-0.7l0.31,-0.24l-0.58,-1.31l0.1,-0.56l-0.96,0.04l-0.83,-0.68l0.1,-0.38l-0.07,-0.77l0.18,-0.62l-0.64,-0.42l-0.19,-0.8l0.03,-0.64l-0.27,-0.33l-0.3,-1.02l0.46,-0.97l-0.06,-0.49l0.15,-0.42l-0.18,-0.12l0.19,-0.71l0.09,-0.13l0.33,0.1l0.4,-0.13l0.09,-0.18l0.21,0.03l0.46,0.56l1.16,0.42l0.74,0.5l1.14,0.27l0.25,0.3l0.4,0.13l0.09,-0.27l-0.3,-0.15l0.16,-0.55h-0.46l0.36,-0.89l0.21,-0.21l0.15,0.1l0.22,-0.18l0.1,0.09l0.95,-0.5l0.68,-0.7l0.65,-1.28l-0.06,-0.5l0.21,-0.33l-0.21,-0.9l0.19,-0.45l-0.98,-0.67l0.3,-0.52l0.4,-0.16l0.24,-1.35l0.67,-0.09l0.15,-0.21l-0.04,-0.61l0.16,-0.18l0.18,0.15l0.2,-0.34l0,0l0.39,0.27L285.73,243.34zM302.4,225.36l0.39,0.1l-0.01,0.3l0.27,0.53l-0.18,0.82l-0.76,0.39l-0.63,-0.05l-0.17,-0.14l-0.36,0.17h-0.47l-0.29,-0.52l0.27,-0.89l0.32,-0.05l0.07,-0.37l0.35,-0.22l0.29,-0.12l0.39,0.09l0.22,-0.34L302.4,225.36z"/>
		<path id="ID-JK" title="Jakarta Raya" class="land" d="M173.73,239.14l-0.26,0.49l0.16,0.73l-0.3,0.61l-0.64,0.23l-0.42,0.57l-0.21,-0.28l0.38,-0.45l0.03,-0.4l-0.33,-0.26l0.02,-0.42l-0.28,0.04l-0.54,0.49l-0.05,0.31l-0.26,-0.16l0.28,-0.59l0.99,-0.75l0.52,0.12v-0.26l0.49,0.02l0.26,-0.16L173.73,239.14zM199.3,231.73l1.8,0.34l0.73,-0.41l1.4,-0.09l0,0l-0.06,1.98l-0.41,0.86l-0.64,0.17l0.06,0.56l0.21,0.37l-0.21,0.95l-0.18,0.06l-0.85,-0.49l-0.9,0.25l-0.11,-0.16l0.24,-0.68l-0.53,0.06l0,0l0,0l0,0l-0.44,-0.76l-0.16,-0.73l-0.39,-0.08l0.02,-0.66l-0.61,-0.33l0.03,-1.12l0.6,-0.26l0,0L199.3,231.73z"/>
		<path id="ID-JT" title="Jawa Tengah" class="land" d="M284.95,243.04L284.75,243.38L284.57,243.23L284.41,243.41L284.45,244.02L284.3,244.23L283.64,244.32L283.4,245.67L283,245.83L282.7,246.35L283.68,247.02L283.49,247.46L283.7,248.37L283.49,248.69L283.55,249.2L282.9,250.47L282.21,251.18L281.26,251.68L281.16,251.59L280.94,251.77L280.79,251.67L280.58,251.87L280.23,252.76L280.69,252.76L280.52,253.31L280.82,253.46L280.73,253.73L280.33,253.6L280.08,253.3L278.94,253.03L278.2,252.53L277.04,252.11L276.58,251.55L276.37,251.52L276.28,251.7L275.88,251.83L275.56,251.73L275.47,251.86L275.28,252.57L275.45,252.69L275.3,253.11L275.36,253.6L274.9,254.56L275.2,255.59L275.47,255.91L275.44,256.55L275.63,257.35L276.27,257.77L276.09,258.39L276.16,259.17L276.06,259.54L276.89,260.23L277.85,260.18L277.75,260.75L278.33,262.05L278.02,262.29L277.84,262.99L277.22,263.68L276.92,263.76L276.65,263.44L276.24,263.5L276.16,263.21L275.53,263.38L275.35,263.56L275.39,263.85L275.11,264.05L275.19,265.1L274.74,265.8L274.19,265.49L273.35,266.1L272.08,265.77L271.39,266.69L271.14,267.6L271.26,268.42L271.26,268.42L270.07,268.13L270.07,268.13L270.11,267.63L269.99,267.58L269.81,267.76L269.73,267.65L269.97,267.04L269.75,267.03L269.43,267.41L269.2,267.23L269.25,266.48L268.68,264.87L268.91,264.32L268.89,263.22L269.18,262.38L269.23,261.49L268.94,261.32L268.7,261.59L268.33,261.13L268.01,261L267.84,261.22L267.43,261.27L267.24,260.94L267,261.17L266.86,261.03L265.76,261.26L265.55,260.92L265.32,260.83L264.96,261.06L264.53,260.66L264.21,260.6L263.4,256.71L261.01,258.59L260.44,259.36L260.18,259.22L260.21,258.63L260.01,258.46L259.72,258.58L258.46,258.45L257.85,258.61L257.67,259.04L257.99,259.32L257.87,260.2L257.53,260.71L257.27,260.81L257.07,261.23L256.67,261.47L256.36,262.75L255.78,262.72L255.78,262.72L254.09,262.1L250.47,261.11L247.13,260.58L246.67,260.4L245.48,260.66L245.02,260.32L245.19,259.82L243.32,259.4L240.24,259.17L239.47,259.29L238.88,259.64L238.72,259.94L238.63,260.32L238.82,260.56L239.1,260.47L239.22,260.63L239.03,260.87L235.32,260.07L234.82,260.16L234.65,259.86L234.83,259.59L234.58,259.51L234.88,259.2L235.34,259.13L235.52,258.89L235.92,258.89L235.92,258.74L235.7,258.65L234.87,258.95L234.87,258.95L234.38,258.7L233.69,257.97L233.98,257.53L234.06,257.01L233.72,256.07L233.42,255.7L233.32,255.26L233.45,254.8L232.9,254.21L232.79,253.73L232.28,253.25L231.11,253.34L230.9,253.1L230.72,253.12L230.63,252.3L231.1,251.49L231.1,250.98L230.82,250.71L230.84,250.14L231.82,249.66L232.16,249.65L232.5,249.96L233.08,249.9L233.56,249.32L234.22,249.27L234.5,249.01L234.45,248.64L234.62,248.27L234.52,247.96L234.79,247.73L234.83,247.37L234.18,247L234.23,246.35L234.07,245.85L234.5,245.27L234.75,245.16L235.31,244.31L235.38,242.84L235.38,242.84L235.48,243.08L235.38,243.34L235.67,243.39L235.92,243.84L237.55,244.31L237.79,243.91L238.14,243.89L238.83,243.42L239.13,243.49L239.47,243.1L239.61,243.99L240.27,244.61L241.14,244.61L241.6,244.89L242.82,245.07L243.58,245.06L244.2,244.86L244.62,244.94L245.61,244.68L246.64,244.11L247.33,243.46L248.29,244.48L249.77,244.65L253.52,245.86L254.4,245.77L255.04,245.94L255.8,245.88L258.13,245.11L258.52,244.84L258.61,244.59L259.37,244.83L259.87,245.65L260.74,245.97L261.07,246.24L262.08,246.55L263.21,246.3L263.33,246.53L263.94,246.3L263.93,245.87L264.4,245.19L264.63,244.45L265.22,243.97L265.6,243.2L265.05,243.16L264.9,242.93L265.3,243L265.05,242.54L265.41,242.46L265.67,242.62L266.08,242.32L266.71,241.48L266.64,240.66L266.88,240.58L266.97,239.8L266.86,239.63L267.41,239.01L267.12,238.69L267.4,238.58L268.1,237.73L269.17,237.36L269.66,237.36L270.01,237.08L271.25,236.95L272.11,237.16L272.58,237L273.67,237.35L274.7,240.44L275.35,241.3L276.38,241.53L277.08,241.9L279.39,242.13L280.79,241.52L280.97,241.03L281.46,240.76L281.75,240.97L282.13,240.88L282.83,241.17z"/>
	</g>
</svg>